<mxfile host="app.diagrams.net" modified="2022-06-24T05:46:33.940Z" agent="5.0 (Macintosh; Intel Mac OS X 10_15_7) AppleWebKit/537.36 (KHTML, like Gecko) Chrome/102.0.0.0 Safari/537.36" etag="wsf9rgGqV0DQGB5hVreP" version="18.1.3" type="github">
  <diagram id="9z2b-7IFMl0gJk7f5b-0" name="第 1 页">
    <mxGraphModel dx="927" dy="596" grid="1" gridSize="10" guides="1" tooltips="1" connect="1" arrows="1" fold="1" page="1" pageScale="1" pageWidth="827" pageHeight="1169" math="0" shadow="0">
      <root>
        <mxCell id="0" />
        <mxCell id="1" parent="0" />
        <mxCell id="KLApyOo67-t2EKgrCY8o-1" value="天翼云" style="rounded=0;whiteSpace=wrap;html=1;fontStyle=1;align=center;verticalAlign=top;" vertex="1" parent="1">
          <mxGeometry x="40" y="40" width="760" height="220" as="geometry" />
        </mxCell>
        <mxCell id="KLApyOo67-t2EKgrCY8o-2" value="公网" style="ellipse;shape=cloud;whiteSpace=wrap;html=1;" vertex="1" parent="1">
          <mxGeometry x="340" y="280" width="120" height="80" as="geometry" />
        </mxCell>
        <mxCell id="KLApyOo67-t2EKgrCY8o-3" value="长沙IDC 机房" style="rounded=0;whiteSpace=wrap;html=1;fontStyle=1;align=center;verticalAlign=top;" vertex="1" parent="1">
          <mxGeometry x="40" y="400" width="760" height="220" as="geometry" />
        </mxCell>
        <mxCell id="KLApyOo67-t2EKgrCY8o-4" value="gitlab" style="rounded=0;whiteSpace=wrap;html=1;" vertex="1" parent="1">
          <mxGeometry x="80" y="80" width="120" height="60" as="geometry" />
        </mxCell>
        <mxCell id="KLApyOo67-t2EKgrCY8o-5" value="jenkins" style="rounded=0;whiteSpace=wrap;html=1;" vertex="1" parent="1">
          <mxGeometry x="280" y="80" width="120" height="60" as="geometry" />
        </mxCell>
        <mxCell id="KLApyOo67-t2EKgrCY8o-6" value="nexus" style="rounded=0;whiteSpace=wrap;html=1;" vertex="1" parent="1">
          <mxGeometry x="480" y="80" width="120" height="60" as="geometry" />
        </mxCell>
        <mxCell id="KLApyOo67-t2EKgrCY8o-7" value="业务服务器" style="rounded=0;whiteSpace=wrap;html=1;" vertex="1" parent="1">
          <mxGeometry x="100" y="450" width="120" height="60" as="geometry" />
        </mxCell>
      </root>
    </mxGraphModel>
  </diagram>
</mxfile>
